<svg width="66" height="77" viewBox="0 0 66 77" fill="none" xmlns="http://www.w3.org/2000/svg">
<path d="M64.13 38.1895C63.0975 38.1895 62.2601 39.0245 62.2601 40.054V73.2713H42.1941V52.4196C42.1941 51.39 41.3567 50.5551 40.3242 50.5551H25.6761C24.6436 50.5551 23.8062 51.39 23.8062 52.4196V68.9535C23.8062 69.983 24.6436 70.818 25.6761 70.818C26.7087 70.818 27.5461 69.983 27.5461 68.9535V54.284H38.4542V73.2713H3.73992V27.6346L32.9998 4.25429L62.9604 28.1943C63.7663 28.8385 64.9432 28.7086 65.5889 27.9053C66.2347 27.1017 66.105 25.9286 65.2991 25.2844L34.1692 0.409721C33.486 -0.136574 32.5136 -0.136574 31.8305 0.409721L0.700612 25.2844C0.257743 25.6384 0 26.1732 0 26.7394V75.1355C0 76.165 0.83712 77 1.86996 77H64.13C65.1629 77 66 76.165 66 75.1355V40.054C66 39.0242 65.1629 38.1895 64.13 38.1895Z" fill="#015AEB"/>
</svg>
